<?xml version="1.0" standalone="no"?>
<!DOCTYPE svg PUBLIC "-//W3C//DTD SVG 20010904//EN"
 "http://www.w3.org/TR/2001/REC-SVG-20010904/DTD/svg10.dtd">
<svg version="1.0" xmlns="http://www.w3.org/2000/svg"
 width="170.000000pt" height="145.000000pt" viewBox="0 0 170.000000 145.000000"
 preserveAspectRatio="xMidYMid meet">
<metadata>
Created by potrace 1.15, written by Peter Selinger 2001-2017
</metadata>
<g transform="translate(0.000000,145.000000) scale(0.100000,-0.100000)"
fill="#000000" stroke="none">
<path d="M963 1430 c-45 -27 -63 -68 -63 -144 l0 -65 -32 -6 c-46 -7 -395 -52
-503 -65 -117 -13 -195 -50 -264 -125 -77 -85 -95 -141 -95 -305 0 -116 3
-143 23 -192 31 -79 106 -159 187 -199 62 -31 70 -32 374 -57 l310 -26 0 -74
c0 -94 21 -133 85 -158 52 -19 100 -13 139 17 40 31 56 71 56 137 l0 59 46 7
c100 13 220 104 261 197 11 26 20 36 27 29 16 -16 104 -12 133 7 45 30 53 67
53 254 0 138 -3 178 -16 205 -22 46 -65 67 -123 62 l-46 -4 -27 55 c-50 103
-161 188 -269 206 -39 7 -39 7 -39 54 0 26 -8 61 -18 80 -36 66 -133 91 -199
51z m302 -329 c22 -10 57 -37 78 -59 29 -33 37 -50 37 -81 0 -33 -4 -40 -29
-51 -42 -17 -102 -4 -158 33 -80 54 -114 125 -77 161 21 22 99 20 149 -3z"/>
</g>
</svg>
